# xmcd
#
# Track frame offsets: 
#        150
#        28676
#        51424
#        67497
#        84947
#        103991
#        114462
#        122219
#        131857
#        145374
#        160503
#        176134
#
# Disc length: 2500 seconds
#
# Revision: 0
# Processed by: cddbd v1.5.2PL0 Copyright (c) Steve Scherf et al.
# Submitted via: ExactAudioCopy v0.99pb5
#
DISCID=b709c20c
DTITLE=Jordan Officer - Jordan Officer
DYEAR=2010
DGENRE=Blues
TTITLE0=Beaumont
TTITLE1=Stay with me
TTITLE2=Donny
TTITLE3=Burnley Moods
TTITLE4=Rebel Blues
TTITLE5=Small Four
TTITLE6=Hope Song
TTITLE7=Mama's Blues
TTITLE8=Sophisticated Lady
TTITLE9=Pres
TTITLE10=To Cold Water
TTITLE11=Love Song
EXTD=
EXTT0=
EXTT1=
EXTT2=
EXTT3=
EXTT4=
EXTT5=
EXTT6=
EXTT7=
EXTT8=
EXTT9=
EXTT10=
EXTT11=
PLAYORDER=
